<?xml version="1.0" standalone="no"?>
<!DOCTYPE svg PUBLIC "-//W3C//DTD SVG 20010904//EN"
 "http://www.w3.org/TR/2001/REC-SVG-20010904/DTD/svg10.dtd">
<svg version="1.0" xmlns="http://www.w3.org/2000/svg"
 width="87.000000pt" height="87.000000pt" viewBox="0 0 87.000000 87.000000"
 preserveAspectRatio="xMidYMid meet">
<metadata>
Created by potrace 1.11, written by Peter Selinger 2001-2013
</metadata>
<g transform="translate(0.000000,87.000000) scale(0.100000,-0.100000)"
fill="#000000" stroke="none">
<path d="M368 839 c-106 -16 -227 -118 -269 -227 -16 -41 -23 -84 -25 -157 -2
-55 -10 -124 -18 -153 -8 -30 -12 -60 -9 -68 7 -20 37 -26 67 -13 20 9 29 9
41 -1 14 -12 14 -24 0 -100 -10 -53 27 -67 90 -34 26 14 53 23 59 21 7 -3 16
-23 20 -45 3 -22 12 -42 18 -45 7 -2 45 12 83 33 39 21 86 41 105 45 64 14
146 62 197 118 76 84 87 113 91 245 4 107 2 116 -24 168 -35 70 -123 157 -188
188 -56 27 -156 37 -238 25z m136 -161 c-47 -74 -173 -225 -234 -281 -142
-128 -195 -111 -145 47 10 31 24 61 33 68 13 11 14 10 9 -7 -17 -59 -17 -82
-3 -94 13 -11 23 -9 58 9 53 27 173 143 240 233 56 74 83 91 42 25z m129 -125
c-132 -209 -361 -422 -409 -382 -21 17 -14 69 17 135 l23 49 4 -37 c5 -54 22
-63 69 -40 55 28 171 139 238 227 56 73 93 104 58 48z m87 -142 c-23 -45 -162
-202 -220 -250 -61 -51 -99 -69 -119 -56 -15 9 -14 60 3 100 16 38 36 47 36
16 0 -10 6 -24 13 -30 26 -21 150 78 251 202 39 48 57 57 36 18z"/>
</g>
</svg>
